# xmcd
#
# Track frame offsets:
# 150
# 19521
# 43616
# 66964
# 85604
# 103941
# 123432
# 143046
# 161669
# 179569
# 197767
# 215261
# 233398
# 251372
# 268662
#
# Disc length: 3824 seconds
#
#
# Revision: 0
# Processed by: cddbd v1.4PL0 Copyright (c) Steve Scherf et al.
# Submitted via: FreeRIP 2.51 
#
DISCID=c90eee0f
DTITLE=abed - jeanne
DYEAR=2003
DGENRE=R&B
TTITLE0=sa
TTITLE1=sa
TTITLE2=d
TTITLE3=sade
TTITLE4=sa
TTITLE5=sa
TTITLE6=sa
TTITLE7=sa
TTITLE8=sa
TTITLE9=sa
TTITLE10=sa
TTITLE11=sa
TTITLE12=sa
TTITLE13=sa
TTITLE14=sa
EXTD=id:c90eee0f
EXTT0=
EXTT1=
EXTT2=
EXTT3=
EXTT4=
EXTT5=
EXTT6=
EXTT7=
EXTT8=
EXTT9=
EXTT10=
EXTT11=
EXTT12=
EXTT13=
EXTT14=
PLAYORDER=
